<?xml version="1.0" encoding="UTF-8" standalone="no"?>
<!-- Created with Inkscape (http://www.inkscape.org/) -->

<svg
   xmlns:dc="http://purl.org/dc/elements/1.1/"
   xmlns:cc="http://creativecommons.org/ns#"
   xmlns:rdf="http://www.w3.org/1999/02/22-rdf-syntax-ns#"
   xmlns:svg="http://www.w3.org/2000/svg"
   xmlns="http://www.w3.org/2000/svg"
   xmlns:sodipodi="http://sodipodi.sourceforge.net/DTD/sodipodi-0.dtd"
   xmlns:inkscape="http://www.inkscape.org/namespaces/inkscape"
   width="248.86259mm"
   height="141.62889mm"
   viewBox="0 0 881.7966 501.83465"
   id="svg2"
   version="1.1"
   inkscape:version="0.91 r13725"
   sodipodi:docname="Marvel Television.svg">
  <defs
     id="defs4">
    <style
       type="text/css"
       id="style2422" />
    <clipPath
       id="id3">
      <path
         inkscape:connector-curvature="0"
         d="M 0,792 612,792 612,0 0,0 0,792 Z"
         id="path2428" />
    </clipPath>
  </defs>
  <sodipodi:namedview
     id="base"
     pagecolor="#ffffff"
     bordercolor="#666666"
     borderopacity="1.0"
     inkscape:pageopacity="0.0"
     inkscape:pageshadow="2"
     inkscape:zoom="0.35"
     inkscape:cx="239.00209"
     inkscape:cy="94.92327"
     inkscape:document-units="px"
     inkscape:current-layer="layer1"
     showgrid="false"
     fit-margin-top="0"
     fit-margin-left="0"
     fit-margin-right="0"
     fit-margin-bottom="0"
     inkscape:window-width="1600"
     inkscape:window-height="837"
     inkscape:window-x="-8"
     inkscape:window-y="-8"
     inkscape:window-maximized="1" />
  <metadata
     id="metadata7">
    <rdf:RDF>
      <cc:Work
         rdf:about="">
        <dc:format>image/svg+xml</dc:format>
        <dc:type
           rdf:resource="http://purl.org/dc/dcmitype/StillImage" />
        <dc:title></dc:title>
      </cc:Work>
    </rdf:RDF>
  </metadata>
  <g
     inkscape:label="Layer 1"
     inkscape:groupmode="layer"
     id="layer1"
     transform="translate(-100,-58.384682)">
    <g
       id="g3367"
       transform="matrix(2.0040832,0,0,2.0040832,100,139.36187)">
      <path
         style="opacity:1;fill:#d40317;fill-opacity:1;fill-rule:nonzero;stroke:none;stroke-width:1.67617822;stroke-linecap:round;stroke-linejoin:miter;stroke-miterlimit:4;stroke-dasharray:none;stroke-opacity:1"
         d="m 0,-40.406101 440,0 L 440,210 0,210 Z"
         id="rect4340"
         inkscape:connector-curvature="0" />
      <g
         style="display:inline"
         inkscape:label="Frame"
         id="layer2">
        <path
           sodipodi:nodetypes="ccccc"
           inkscape:connector-curvature="0"
           id="path4142"
           d="m 67,26 304,0 0,123 -304,0 z"
           style="fill:none;fill-rule:evenodd;stroke:#ffffff;stroke-width:2;stroke-linecap:butt;stroke-linejoin:miter;stroke-miterlimit:4;stroke-dasharray:none;stroke-opacity:1" />
      </g>
      <g
         style="display:inline"
         inkscape:label="STUDIOS"
         id="layer3" />
      <g
         style="display:inline"
         inkscape:label="MARVEL"
         id="layer4">
        <g
           clip-path="url(#id3)"
           id="g2505"
           transform="matrix(0.72718451,0,0,-0.72718449,-1.3925872,383.91011)">
          <path
             inkscape:connector-curvature="0"
             d="m 454.94191,478.96586 23.66597,0 0,-115.84279 20.06463,0 0,-29.22639 -43.7306,0 0,145.06918 z"
             id="path2509"
             style="fill:#ffffff;fill-rule:nonzero;stroke:none" />
          <path
             inkscape:connector-curvature="0"
             d="m 291.85248,409.8853 c 16.97776,1.06278 15.43432,22.84972 15.43432,22.84972 -2.57239,21.25556 -15.43432,20.19278 -15.43432,20.19278 l 0,-43.0425 z m -54.53464,-33.47751 -7.20269,44.10529 -6.17373,-44.10529 13.37642,0 z m -130.16286,-41.97972 0,144.53779 31.89763,0 11.31851,-60.57834 12.86193,60.57834 30.86867,0 0,-130.1903 20.06463,130.1903 31.38314,0 19.55015,-130.1903 0,129.65892 41.67269,0 c 0,0 14.40537,-2.65695 21.60807,-23.38113 l -3.08687,23.91251 25.2094,0 11.83299,-74.92584 12.34747,74.39446 70.99792,0 0,-27.10084 -21.09359,0 0,-29.75778 20.06463,0 0,-30.28918 -19.55016,0 0,-27.63222 20.57912,0 0,-29.22639 -45.78851,0 0,139.22391 -23.66599,-139.22391 -28.29627,0 -14.91985,92.46167 c 0,0 -2.57239,-25.50666 -16.46329,-37.19722 l 18.00673,-55.26445 -24.69494,0 -17.49224,48.35639 0,-48.35639 -49.90433,0 -2.57239,13.81611 -19.03568,0 -4.11581,-13.81611 -47.33196,0 0,53.1389 -12.34746,-53.1389 -12.86195,0 -11.31851,52.6075 0,-52.07612 -25.72388,-0.53138 z"
             id="path2515"
             style="fill:#ffffff;fill-rule:nonzero;stroke:none" />
        </g>
      </g>
      <text
         sodipodi:linespacing="125%"
         id="text4261"
         y="175.72742"
         x="338.71994"
         style="font-style:normal;font-weight:normal;font-size:40px;line-height:125%;font-family:Sans;letter-spacing:0px;word-spacing:0px;fill:#000000;fill-opacity:1;stroke:none;stroke-width:1px;stroke-linecap:butt;stroke-linejoin:miter;stroke-opacity:1"
         xml:space="preserve"><tspan
           y="175.72742"
           x="338.71994"
           id="tspan4263"
           sodipodi:role="line" /></text>
    </g>
  </g>
</svg>
